{
	"asset":{
		"version":"2.0",
		"generator":"Created using the official Cinema 4D glTF Exporter 1.000x284978"
	},
	"scenes":[{
		"nodes":[0,
		1,
		2,
		3,
		4,
		10]
	}],
	"samplers":[{
		"magFilter":9729,
		"minFilter":9729,
		"wrapS":10497,
		"wrapT":10497
	},
	{
		"magFilter":9729,
		"minFilter":9729,
		"wrapS":10497,
		"wrapT":10497
	}],
	"nodes":[{
		"name":"Default_4.4",
		"translation":[-23.891481399536134,
		86.17633056640625,
		-12.726079940795899],
		"rotation":[0.695990800857544,
		-0.11785292625427246,
		0.0917356088757515,
		-0.7023475170135498],
		"mesh":0,
		"scale":[3.0,
		3.0,
		3.0]
	},
	{
		"name":"Default_4.3",
		"translation":[4.8308024406433109,
		46.11056900024414,
		-4.083623886108398],
		"rotation":[1.0146914419806308e-8,
		0.9630057215690613,
		2.839442680979687e-9,
		0.2694809138774872],
		"mesh":1,
		"scale":[1.0,
		1.0,
		1.0]
	},
	{
		"name":"Default_4.2",
		"translation":[2.8837034702301027,
		26.895217895507814,
		-4.839807033538818],
		"rotation":[0.1477007418870926,
		0.9886682629585266,
		0.004108101595193148,
		0.026508959010243417],
		"mesh":2,
		"scale":[1.0,
		1.0,
		1.0]
	},
	{
		"name":"Default_4.1",
		"translation":[0.9531823396682739,
		48.789981842041019,
		-0.4943045675754547],
		"rotation":[-0.20618006587028504,
		0.1008729338645935,
		-0.11901041120290756,
		-0.9659973978996277],
		"mesh":3,
		"scale":[1.0,
		1.0,
		1.0]
	},
	{
		"name":"Nulo_",
		"translation":[0.5246514081954956,
		49.05455017089844,
		1.6602033376693726],
		"rotation":[0.0,
		0.0,
		0.0,
		-1.0],
		"scale":[1.0,
		1.0,
		1.0],
		"children":[5,
		8]
	},
	{
		"name":"Nulo__2",
		"translation":[0.0,
		0.0,
		0.0],
		"rotation":[0.0,
		0.0,
		0.0,
		-1.0],
		"scale":[1.0,
		1.0,
		1.0],
		"children":[6,
		7]
	},
	{
		"name":"Nulo__2-Mat.3",
		"translation":[0.0,
		0.0,
		0.0],
		"rotation":[0.0,
		0.0,
		0.0,
		-1.0],
		"mesh":4,
		"scale":[1.0,
		1.0,
		1.0]
	},
	{
		"name":"Nulo__2-Mat.2",
		"translation":[0.0,
		0.0,
		0.0],
		"rotation":[0.0,
		0.0,
		0.0,
		-1.0],
		"mesh":5,
		"scale":[1.0,
		1.0,
		1.0]
	},
	{
		"name":"Default",
		"translation":[0.6644421815872192,
		-10.746688842773438,
		-3.8698947429656984],
		"rotation":[0.0,
		0.0,
		0.0,
		-1.0],
		"scale":[1.0,
		1.0,
		1.0],
		"children":[9]
	},
	{
		"name":"Default_2",
		"translation":[0.0,
		0.0,
		1.3322676295501879e-15],
		"rotation":[0.0,
		0.0,
		0.0,
		-1.0],
		"mesh":6,
		"scale":[1.0,
		1.0,
		1.0]
	},
	{
		"name":"Default_4",
		"translation":[41.391990661621097,
		87.64041137695313,
		-11.93894100189209],
		"rotation":[0.695990800857544,
		-0.11785292625427246,
		0.0917356088757515,
		-0.7023475170135498],
		"mesh":7,
		"scale":[3.0,
		3.0,
		3.0]
	}],
	"meshes":[{
		"name":"Default_4.4",
		"primitives":[{
			"attributes":{
				"POSITION":1,
				"NORMAL":2,
				"TEXCOORD_0":3
			},
			"indices":0,
			"material":0
		}]
	},
	{
		"name":"Default_4.3",
		"primitives":[{
			"attributes":{
				"POSITION":7,
				"NORMAL":8,
				"TEXCOORD_0":9
			},
			"indices":6,
			"material":0
		}]
	},
	{
		"name":"Default_4.2",
		"primitives":[{
			"attributes":{
				"POSITION":13,
				"NORMAL":14,
				"TEXCOORD_0":15
			},
			"indices":12,
			"material":0
		}]
	},
	{
		"name":"Default_4.1",
		"primitives":[{
			"attributes":{
				"POSITION":19,
				"NORMAL":20,
				"TEXCOORD_0":21
			},
			"indices":18,
			"material":0
		}]
	},
	{
		"name":"Nulo__2-Mat.3",
		"primitives":[{
			"attributes":{
				"POSITION":25,
				"NORMAL":26,
				"TEXCOORD_0":27
			},
			"indices":24,
			"material":1
		}]
	},
	{
		"name":"Nulo__2-Mat.2",
		"primitives":[{
			"attributes":{
				"POSITION":29,
				"NORMAL":30,
				"TEXCOORD_0":31
			},
			"indices":28,
			"material":2
		}]
	},
	{
		"name":"Default_2",
		"primitives":[{
			"attributes":{
				"POSITION":33,
				"NORMAL":34,
				"TEXCOORD_0":35
			},
			"indices":32,
			"material":3
		}]
	},
	{
		"name":"Default_4",
		"primitives":[{
			"attributes":{
				"POSITION":37,
				"NORMAL":38,
				"TEXCOORD_0":39
			},
			"indices":36,
			"material":0
		}]
	}],
	"accessors":[{
		"bufferView":0,
		"type":"SCALAR",
		"componentType":5123,
		"max":[2760],
		"count":16368,
		"byteOffset":0,
		"min":[0]
	},
	{
		"bufferView":1,
		"type":"VEC3",
		"componentType":5126,
		"max":[2.267432928085327,
		0.004727490246295929,
		3.3178348541259767],
		"count":2761,
		"byteOffset":0,
		"min":[-2.075315237045288,
		-1.4842193126678467,
		-0.047571513801813129]
	},
	{
		"bufferView":1,
		"type":"VEC3",
		"componentType":5126,
		"max":[0.9998635649681091,
		0.999894917011261,
		0.9994691014289856],
		"count":2761,
		"byteOffset":12,
		"min":[-0.9988777041435242,
		-0.9998499155044556,
		-0.9993416666984558]
	},
	{
		"bufferView":1,
		"type":"VEC2",
		"componentType":5126,
		"max":[2.3849000930786135,
		2.115999698638916],
		"count":2761,
		"byteOffset":24,
		"min":[-2.385200023651123,
		0.5]
	},
	{
		"bufferView":2,
		"type":"SCALAR",
		"componentType":5126,
		"max":[6.5],
		"count":196,
		"byteOffset":0,
		"min":[0.0]
	},
	{
		"bufferView":2,
		"type":"VEC4",
		"componentType":5126,
		"max":[0.9968646168708801,
		0.6691900491714478,
		0.39658597111701968,
		0.6024814248085022],
		"count":196,
		"byteOffset":784,
		"min":[-0.557059109210968,
		-0.39659106731414797,
		-0.674968421459198,
		-0.7023475170135498]
	},
	{
		"bufferView":3,
		"type":"SCALAR",
		"componentType":5123,
		"max":[2760],
		"count":16368,
		"byteOffset":0,
		"min":[0]
	},
	{
		"bufferView":4,
		"type":"VEC3",
		"componentType":5126,
		"max":[34.43512725830078,
		32.18366241455078,
		3.5398128032684328],
		"count":2761,
		"byteOffset":0,
		"min":[28.52307891845703,
		19.997650146484376,
		-7.205289840698242]
	},
	{
		"bufferView":4,
		"type":"VEC3",
		"componentType":5126,
		"max":[0.999753475189209,
		0.9944849610328674,
		0.999833345413208],
		"count":2761,
		"byteOffset":12,
		"min":[-0.9975081086158752,
		-0.9992840886116028,
		-0.9993872046470642]
	},
	{
		"bufferView":4,
		"type":"VEC2",
		"componentType":5126,
		"max":[2.3849000930786135,
		2.115999698638916],
		"count":2761,
		"byteOffset":24,
		"min":[-2.385200023651123,
		0.5]
	},
	{
		"bufferView":5,
		"type":"SCALAR",
		"componentType":5126,
		"max":[6.5],
		"count":196,
		"byteOffset":0,
		"min":[0.0]
	},
	{
		"bufferView":5,
		"type":"VEC4",
		"componentType":5126,
		"max":[6.936208496455265e-9,
		0.999902069568634,
		2.7203248542662097e-9,
		0.9999998211860657],
		"count":196,
		"byteOffset":784,
		"min":[-6.123234262925839e-17,
		1.2246468525851679e-16,
		-7.131363499723875e-9,
		-1.0]
	},
	{
		"bufferView":6,
		"type":"SCALAR",
		"componentType":5123,
		"max":[2760],
		"count":16368,
		"byteOffset":0,
		"min":[0]
	},
	{
		"bufferView":7,
		"type":"VEC3",
		"componentType":5126,
		"max":[-24.48368263244629,
		22.408342361450197,
		4.532541275024414],
		"count":2761,
		"byteOffset":0,
		"min":[-32.85358810424805,
		11.762843132019043,
		-5.516784191131592]
	},
	{
		"bufferView":7,
		"type":"VEC3",
		"componentType":5126,
		"max":[0.9943370223045349,
		0.9992613196372986,
		0.99992835521698],
		"count":2761,
		"byteOffset":12,
		"min":[-0.9999954700469971,
		-0.9979366064071655,
		-0.9998915195465088]
	},
	{
		"bufferView":7,
		"type":"VEC2",
		"componentType":5126,
		"max":[2.3849000930786135,
		2.115999698638916],
		"count":2761,
		"byteOffset":24,
		"min":[-2.385200023651123,
		0.5]
	},
	{
		"bufferView":8,
		"type":"SCALAR",
		"componentType":5126,
		"max":[6.5],
		"count":196,
		"byteOffset":0,
		"min":[0.0]
	},
	{
		"bufferView":8,
		"type":"VEC4",
		"componentType":5126,
		"max":[0.1477007418870926,
		0.9902706742286682,
		0.1537444293498993,
		0.9889957308769226],
		"count":196,
		"byteOffset":784,
		"min":[-0.12120173126459122,
		0.003863089019432664,
		-0.13898834586143495,
		-0.9899680614471436]
	},
	{
		"bufferView":9,
		"type":"SCALAR",
		"componentType":5123,
		"max":[2760],
		"count":16368,
		"byteOffset":0,
		"min":[0]
	},
	{
		"bufferView":10,
		"type":"VEC3",
		"componentType":5126,
		"max":[-22.4692325592041,
		22.950729370117189,
		4.472253322601318],
		"count":2761,
		"byteOffset":0,
		"min":[-30.627120971679689,
		12.248291015625,
		-6.203262805938721]
	},
	{
		"bufferView":10,
		"type":"VEC3",
		"componentType":5126,
		"max":[0.9940523505210877,
		0.9955811500549316,
		0.9993578195571899],
		"count":2761,
		"byteOffset":12,
		"min":[-0.9998489022254944,
		-0.9949138760566711,
		-0.9997269511222839]
	},
	{
		"bufferView":10,
		"type":"VEC2",
		"componentType":5126,
		"max":[2.3849000930786135,
		2.115999698638916],
		"count":2761,
		"byteOffset":24,
		"min":[-2.385200023651123,
		0.5]
	},
	{
		"bufferView":11,
		"type":"SCALAR",
		"componentType":5126,
		"max":[6.5],
		"count":196,
		"byteOffset":0,
		"min":[0.0]
	},
	{
		"bufferView":11,
		"type":"VEC4",
		"componentType":5126,
		"max":[0.22661904990673066,
		0.9992024898529053,
		0.0981808751821518,
		0.9967814683914185],
		"count":196,
		"byteOffset":784,
		"min":[-0.21313686668872834,
		-0.009212582372128964,
		-0.1883242428302765,
		-1.0]
	},
	{
		"bufferView":12,
		"type":"SCALAR",
		"componentType":5123,
		"max":[8282],
		"count":49104,
		"byteOffset":0,
		"min":[0]
	},
	{
		"bufferView":13,
		"type":"VEC3",
		"componentType":5126,
		"max":[5.503230571746826,
		17.119985580444337,
		10.380951881408692],
		"count":8283,
		"byteOffset":0,
		"min":[-12.446739196777344,
		2.2267189025878908,
		5.950551986694336]
	},
	{
		"bufferView":13,
		"type":"VEC3",
		"componentType":5126,
		"max":[0.9989063143730164,
		0.9996563196182251,
		0.9999688267707825],
		"count":8283,
		"byteOffset":12,
		"min":[-0.9978750348091126,
		-0.9999688267707825,
		-0.9999688267707825]
	},
	{
		"bufferView":13,
		"type":"VEC2",
		"componentType":5126,
		"max":[2.3849000930786135,
		2.115999698638916],
		"count":8283,
		"byteOffset":24,
		"min":[-2.385200023651123,
		0.5]
	},
	{
		"bufferView":14,
		"type":"SCALAR",
		"componentType":5123,
		"max":[44720],
		"count":164835,
		"byteOffset":0,
		"min":[0]
	},
	{
		"bufferView":15,
		"type":"VEC3",
		"componentType":5126,
		"max":[17.33216667175293,
		19.882076263427736,
		8.93733024597168],
		"count":44721,
		"byteOffset":0,
		"min":[-18.61628532409668,
		-9.778495788574219,
		-16.254066467285158]
	},
	{
		"bufferView":15,
		"type":"VEC3",
		"componentType":5126,
		"max":[0.9999688267707825,
		0.9999688267707825,
		1.0],
		"count":44721,
		"byteOffset":12,
		"min":[-0.9998125433921814,
		-0.9999688267707825,
		-0.9999688267707825]
	},
	{
		"bufferView":15,
		"type":"VEC2",
		"componentType":5126,
		"max":[1.0,
		1.0],
		"count":44721,
		"byteOffset":24,
		"min":[0.0,
		0.0]
	},
	{
		"bufferView":16,
		"type":"SCALAR",
		"componentType":5123,
		"max":[2015],
		"count":2586,
		"byteOffset":0,
		"min":[0]
	},
	{
		"bufferView":17,
		"type":"VEC3",
		"componentType":5126,
		"max":[15.469520568847657,
		6.0086164474487309,
		10.715091705322266],
		"count":2016,
		"byteOffset":0,
		"min":[-15.469520568847657,
		-8.64382553100586,
		-10.715091705322266]
	},
	{
		"bufferView":17,
		"type":"VEC3",
		"componentType":5126,
		"max":[0.9980473518371582,
		0.002530254190787673,
		0.9994665384292603],
		"count":2016,
		"byteOffset":12,
		"min":[-0.9980473518371582,
		-1.0,
		-0.9994665384292603]
	},
	{
		"bufferView":17,
		"type":"VEC2",
		"componentType":5126,
		"max":[2.3622000217437746,
		2.9684996604919435],
		"count":2016,
		"byteOffset":24,
		"min":[-2.3622000217437746,
		-1.2262799739837647]
	},
	{
		"bufferView":18,
		"type":"SCALAR",
		"componentType":5123,
		"max":[2760],
		"count":16368,
		"byteOffset":0,
		"min":[0]
	},
	{
		"bufferView":19,
		"type":"VEC3",
		"componentType":5126,
		"max":[2.267432928085327,
		0.004727490246295929,
		3.3178348541259767],
		"count":2761,
		"byteOffset":0,
		"min":[-2.075315237045288,
		-1.4842193126678467,
		-0.047571513801813129]
	},
	{
		"bufferView":19,
		"type":"VEC3",
		"componentType":5126,
		"max":[0.9998635649681091,
		0.999894917011261,
		0.9994691014289856],
		"count":2761,
		"byteOffset":12,
		"min":[-0.9988777041435242,
		-0.9998499155044556,
		-0.9993416666984558]
	},
	{
		"bufferView":19,
		"type":"VEC2",
		"componentType":5126,
		"max":[2.3849000930786135,
		2.115999698638916],
		"count":2761,
		"byteOffset":24,
		"min":[-2.385200023651123,
		0.5]
	},
	{
		"bufferView":20,
		"type":"SCALAR",
		"componentType":5126,
		"max":[6.5],
		"count":196,
		"byteOffset":0,
		"min":[0.0]
	},
	{
		"bufferView":20,
		"type":"VEC4",
		"componentType":5126,
		"max":[0.9968646168708801,
		0.6691900491714478,
		0.39658597111701968,
		0.6024814248085022],
		"count":196,
		"byteOffset":784,
		"min":[-0.557059109210968,
		-0.39659106731414797,
		-0.674968421459198,
		-0.7023475170135498]
	}],
	"bufferViews":[{
		"byteLength":32736,
		"buffer":0,
		"byteOffset":0,
		"target":34963
	},
	{
		"byteLength":88352,
		"buffer":0,
		"byteOffset":32736,
		"target":34962,
		"byteStride":32
	},
	{
		"byteLength":3920,
		"buffer":1,
		"byteOffset":0
	},
	{
		"byteLength":32736,
		"buffer":2,
		"byteOffset":0,
		"target":34963
	},
	{
		"byteLength":88352,
		"buffer":2,
		"byteOffset":32736,
		"target":34962,
		"byteStride":32
	},
	{
		"byteLength":3920,
		"buffer":3,
		"byteOffset":0
	},
	{
		"byteLength":32736,
		"buffer":4,
		"byteOffset":0,
		"target":34963
	},
	{
		"byteLength":88352,
		"buffer":4,
		"byteOffset":32736,
		"target":34962,
		"byteStride":32
	},
	{
		"byteLength":3920,
		"buffer":5,
		"byteOffset":0
	},
	{
		"byteLength":32736,
		"buffer":6,
		"byteOffset":0,
		"target":34963
	},
	{
		"byteLength":88352,
		"buffer":6,
		"byteOffset":32736,
		"target":34962,
		"byteStride":32
	},
	{
		"byteLength":3920,
		"buffer":7,
		"byteOffset":0
	},
	{
		"byteLength":98208,
		"buffer":8,
		"byteOffset":0,
		"target":34963
	},
	{
		"byteLength":265056,
		"buffer":8,
		"byteOffset":98208,
		"target":34962,
		"byteStride":32
	},
	{
		"byteLength":329670,
		"buffer":9,
		"byteOffset":0,
		"target":34963
	},
	{
		"byteLength":1431072,
		"buffer":9,
		"byteOffset":329672,
		"target":34962,
		"byteStride":32
	},
	{
		"byteLength":5172,
		"buffer":10,
		"byteOffset":0,
		"target":34963
	},
	{
		"byteLength":64512,
		"buffer":10,
		"byteOffset":5172,
		"target":34962,
		"byteStride":32
	},
	{
		"byteLength":32736,
		"buffer":11,
		"byteOffset":0,
		"target":34963
	},
	{
		"byteLength":88352,
		"buffer":11,
		"byteOffset":32736,
		"target":34962,
		"byteStride":32
	},
	{
		"byteLength":3920,
		"buffer":12,
		"byteOffset":0
	}],
	"buffers":[{
		"uri":"data:application/octet-stream;base64,",
		"byteLength":121088
	},
	{
		"uri":"data:application/octet-stream;base64,",
		"byteLength":3920
	},
	{
		"uri":"data:application/octet-stream;base64,",
		"byteLength":121088
	},
	{
		"uri":"data:application/octet-stream;base64,",
		"byteLength":3920
	},
	{
		"uri":"data:application/octet-stream;base64,",
		"byteLength":121088
	},
	{
		"uri":"data:application/octet-stream;base64,",
		"byteLength":3920
	},
	{
		"uri":"data:application/octet-stream;base64,",
		"byteLength":121088
	},
	{
		"uri":"data:application/octet-stream;base64,",
		"byteLength":3920
	},
	{
		"uri":"data:application/octet-stream;base64,",
		"byteLength":363264
	},
	{
		"uri":"data:application/octet-stream;base64,",
		"byteLength":1760744
	},
	{
		"uri":"data:application/octet-stream;base64,",
		"byteLength":69684
	},
	{
		"uri":"data:application/octet-stream;base64,",
		"byteLength":121088
	},
	{
		"uri":"data:application/octet-stream;base64,",
		"byteLength":3920
	}],
	"images":[{
		"uri":"data:image/jpeg;base64,"
	},
	{
		"uri":"data:image/jpeg;base64,"
	}],
	"textures":[{
		"sampler":0,
		"source":0
	},
	{
		"sampler":1,
		"source":1
	}],
	"animations":[{
		"samplers":[{
			"input":4,
			"interpolation":"LINEAR",
			"output":5
		},
		{
			"input":10,
			"interpolation":"LINEAR",
			"output":11
		},
		{
			"input":16,
			"interpolation":"LINEAR",
			"output":17
		},
		{
			"input":22,
			"interpolation":"LINEAR",
			"output":23
		},
		{
			"input":40,
			"interpolation":"LINEAR",
			"output":41
		}],
		"channels":[{
			"sampler":0,
			"target":{
				"node":0,
				"path":"rotation"
			}
		},
		{
			"sampler":1,
			"target":{
				"node":1,
				"path":"rotation"
			}
		},
		{
			"sampler":2,
			"target":{
				"node":2,
				"path":"rotation"
			}
		},
		{
			"sampler":3,
			"target":{
				"node":3,
				"path":"rotation"
			}
		},
		{
			"sampler":4,
			"target":{
				"node":10,
				"path":"rotation"
			}
		}]
	}],
	"materials":[{
		"pbrMetallicRoughness":{
			"baseColorFactor":[0.7768000000000002,
			0.8,
			0.10400000000000001,
			1.0],
			"metallicFactor":0.0,
			"roughnessFactor":0.5
		},
		"emissiveFactor":[0.9199999999999998,
		1.0,
		0.040000000000000038],
		"alphaMode":"OPAQUE",
		"doubleSided":false,
		"name":"Mat.4"
	},
	{
		"pbrMetallicRoughness":{
			"baseColorFactor":[0.9638300000000001,
			0.98,
			0.009800000000000009,
			1.0],
			"metallicFactor":0.0,
			"roughnessFactor":0.5
		},
		"emissiveFactor":[0.0,
		0.0,
		0.0],
		"alphaMode":"OPAQUE",
		"doubleSided":false,
		"name":"Mat.3"
	},
	{
		"pbrMetallicRoughness":{
			"baseColorTexture":{
				"index":0
			},
			"baseColorFactor":[0.8,
			0.472,
			0.7890666666666668,
			1.0],
			"metallicFactor":1.0,
			"roughnessFactor":1.0
		},
		"emissiveFactor":[0.534,
		0.11213999999999999,
		0.5199380000000001],
		"alphaMode":"OPAQUE",
		"doubleSided":false,
		"name":"Mat.2"
	},
	{
		"pbrMetallicRoughness":{
			"baseColorTexture":{
				"index":1
			},
			"baseColorFactor":[0.3549000000000001,
			0.8822450000000002,
			0.91,
			1.0],
			"metallicFactor":0.0,
			"roughnessFactor":0.5
		},
		"emissiveFactor":[0.0,
		0.0,
		0.0],
		"alphaMode":"OPAQUE",
		"doubleSided":false,
		"name":"Mat.1"
	}]
}